3G- A Killer Connection 2013 Hindi Movies 720P HD BRRip New Source Sample Included ~ rDX

Screen Shots :
 
http://myimghosting.serveftp.com/13/3GAKillerConnection720.html
 
http://myimghost.cwahi.net/3GAKillerConnection720.html


Format                                   : Matroska
Format version                           : Version 1
File size                                : 843 MiB
Duration                                 : 2h 0mn
Overall bit rate                         : 979 Kbps
Encoded date                             : UTC 2013-03-19 04:36:10

Video
ID                                       : 1
Format                                   : AVC
Format/Info                              : Advanced Video Codec
Format profile                           : High@L3.2
Format settings, CABAC                   : Yes
Format settings, ReFrames                : 4 frames
Codec ID                                 : V_MPEG4/ISO/AVC
Duration                                 : 2h 0mn
Bit rate                                 : 835 Kbps
Width                                    : 1 280 pixels
Height                                   : 544 pixels
Display aspect ratio                     : 2.35:1
Original display aspect ratio            : 2.35:1
Frame rate mode                          : Constant
Frame rate                               : 24.000 fps
Color space                              : YUV
Chroma subsampling                       : 4:2:0
Bit depth                                : 8 bits
Scan type                                : Progressive
Bits/(Pixel*Frame)                       : 0.050
Stream size                              : 716 MiB (85%)
Language                                 : English
Default                                  : Yes
Forced                                   : No

Audio
ID                                       : 2
Format                                   : AC-3
Format/Info                              : Audio Coding 3
Mode extension                           : CM (complete main)
Format settings, Endianness              : Big
Codec ID                                 : A_AC3
Duration                                 : 2h 0mn
Bit rate mode                            : Constant
Bit rate                                 : 128 Kbps
Channel(s)                               : 2 channels
Channel positions                        : Front: L R
Sampling rate                            : 44.1 KHz
Bit depth                                : 16 bits
Compression mode                         : Lossy
Delay relative to video                  : 20ms
Stream size                              : 110 MiB (13%)
Title                                    : CharmeLeon
Language                                 : Hindi
Default                                  : Yes
Forced                                   : No